<?xml version="1.0" encoding="UTF-8"?>
<!DOCTYPE svg PUBLIC "-//W3C//DTD SVG 1.1//EN" "http://www.w3.org/Graphics/SVG/1.1/DTD/svg11.dtd">
<!-- Creator: CorelDRAW -->
<svg xmlns="http://www.w3.org/2000/svg" xml:space="preserve" width="8.5in" height="11in" version="1.1" style="shape-rendering:geometricPrecision; text-rendering:geometricPrecision; image-rendering:optimizeQuality; fill-rule:evenodd; clip-rule:evenodd"
viewBox="0 0 8500 11000"
 xmlns:xlink="http://www.w3.org/1999/xlink"
 xmlns:xodm="http://www.corel.com/coreldraw/odm/2003">
 <defs>
  <style type="text/css">
   <![CDATA[
    .str0 {stroke:black;stroke-width:9.84;stroke-linejoin:bevel;stroke-miterlimit:2.61313}
    .fil0 {fill:none}
   ]]>
  </style>
 </defs>
 <g id="_0">
  <metadata id="CorelCorpID_0Corel-Layer"/>
  <line class="fil0 str0" x1="4230.57" y1="7013.86" x2="4230.57" y2= "6541.28" />
  <line class="fil0 str0" x1="4329" y1="7013.86" x2="4230.57" y2= "7013.86" />
  <line class="fil0 str0" x1="4329" y1="6639.61" x2="4329" y2= "7013.86" />
  <line class="fil0 str0" x1="4703.15" y1="6639.61" x2="4329" y2= "6639.61" />
  <line class="fil0 str0" x1="4703.15" y1="6541.28" x2="4703.15" y2= "6639.61" />
  <line class="fil0 str0" x1="4230.57" y1="6541.28" x2="4703.15" y2= "6541.28" />
  <path class="fil0 str0" d="M5612.38 7292.17c0,-63.06 -51.11,-114.17 -114.17,-114.17 -63.06,0 -114.17,51.12 -114.17,114.17"/>
  <path class="fil0 str0" d="M5384.04 7522.17c31.09,-73.52 31.09,-156.48 0,-230"/>
  <path class="fil0 str0" d="M5384.04 7522.17c0,63.06 51.12,114.17 114.17,114.17 63.06,0 114.17,-51.12 114.17,-114.17"/>
  <path class="fil0 str0" d="M5612.38 7292.17c-31.09,73.52 -31.09,156.48 0,230"/>
  <path class="fil0 str0" d="M3012.07 7852.39c0,52.21 20.74,102.28 57.66,139.19 36.91,36.92 86.98,57.66 139.19,57.66"/>
  <line class="fil0 str0" x1="3012.07" y1="7852.39" x2="3012.07" y2= "5914.72" />
  <path class="fil0 str0" d="M3208.92 5717.87c-52.21,0 -102.28,20.74 -139.19,57.66 -36.92,36.91 -57.66,86.98 -57.66,139.19"/>
  <line class="fil0 str0" x1="3208.92" y1="5717.87" x2="5956.83" y2= "5717.87" />
  <path class="fil0 str0" d="M6153.69 5914.72c0,-52.21 -20.74,-102.28 -57.66,-139.19 -36.91,-36.92 -86.98,-57.66 -139.19,-57.66"/>
  <line class="fil0 str0" x1="6153.69" y1="5914.72" x2="6153.69" y2= "6514.38" />
  <path class="fil0 str0" d="M5954.17 6704.97c107.35,1.51 196.11,-83.28 199.52,-190.59"/>
  <path class="fil0 str0" d="M5954.17 6704.97c-52.69,-0.74 -103.46,19.67 -140.98,56.66 -37.52,36.99 -58.64,87.48 -58.64,140.17"/>
  <line class="fil0 str0" x1="5754.55" y1="7852.39" x2="5754.55" y2= "6901.8" />
  <path class="fil0 str0" d="M5557.7 8049.24c108.72,0 196.85,-88.13 196.85,-196.85"/>
  <line class="fil0 str0" x1="4318.52" y1="8049.24" x2="5557.7" y2= "8049.24" />
  <path class="fil0 str0" d="M4239.78 7970.5c0,20.88 8.3,40.91 23.06,55.68 14.77,14.77 34.8,23.06 55.68,23.06"/>
  <line class="fil0 str0" x1="4239.78" y1="7772.4" x2="4239.78" y2= "7970.5" />
  <path class="fil0 str0" d="M4239.78 7772.4c0,-20.88 -8.3,-40.91 -23.06,-55.68 -14.77,-14.77 -34.8,-23.06 -55.68,-23.06"/>
  <line class="fil0 str0" x1="3525.57" y1="7693.66" x2="4161.04" y2= "7693.66" />
  <path class="fil0 str0" d="M3525.57 7693.66c-20.88,0 -40.91,8.3 -55.68,23.06 -14.77,14.77 -23.06,34.8 -23.06,55.68"/>
  <line class="fil0 str0" x1="3446.83" y1="7970.5" x2="3446.83" y2= "7772.4" />
  <path class="fil0 str0" d="M3368.09 8049.24c43.49,0 78.74,-35.25 78.74,-78.74"/>
  <line class="fil0 str0" x1="3208.92" y1="8049.24" x2="3368.09" y2= "8049.24" />
  <path class="fil0 str0" d="M5494.71 6011.61c0,-38.05 -30.85,-68.9 -68.9,-68.9 -38.05,0 -68.9,30.85 -68.9,68.9 0,38.05 30.85,68.9 68.9,68.9 38.05,0 68.9,-30.85 68.9,-68.9z"/>
  <path class="fil0 str0" d="M3344.71 7791.61c0,-38.05 -30.85,-68.9 -68.9,-68.9 -38.05,0 -68.9,30.85 -68.9,68.9 0,38.05 30.85,68.9 68.9,68.9 38.05,0 68.9,-30.85 68.9,-68.9z"/>
  <path class="fil0 str0" d="M3344.71 6011.61c0,-38.05 -30.85,-68.9 -68.9,-68.9 -38.05,0 -68.9,30.85 -68.9,68.9 0,38.05 30.85,68.9 68.9,68.9 38.05,0 68.9,-30.85 68.9,-68.9z"/>
  <path class="fil0 str0" d="M5494.71 7791.61c0,-38.05 -30.85,-68.9 -68.9,-68.9 -38.05,0 -68.9,30.85 -68.9,68.9 0,38.05 30.85,68.9 68.9,68.9 38.05,0 68.9,-30.85 68.9,-68.9z"/>
  <line class="fil0 str0" x1="5273.88" y1="7013.86" x2="5372.31" y2= "7013.86" />
  <line class="fil0 str0" x1="5372.31" y1="7013.86" x2="5372.31" y2= "6541.28" />
  <line class="fil0 str0" x1="5372.31" y1="6541.28" x2="4899.73" y2= "6541.28" />
  <line class="fil0 str0" x1="4899.73" y1="6541.28" x2="4899.73" y2= "6639.61" />
  <line class="fil0 str0" x1="4899.73" y1="6639.61" x2="5273.88" y2= "6639.61" />
  <line class="fil0 str0" x1="5273.88" y1="6639.61" x2="5273.88" y2= "7013.86" />
  <line class="fil0 str0" x1="4703.15" y1="7681.94" x2="4703.15" y2= "7583.61" />
  <line class="fil0 str0" x1="4703.15" y1="7583.61" x2="4329" y2= "7583.61" />
  <line class="fil0 str0" x1="4329" y1="7583.61" x2="4329" y2= "7209.36" />
  <line class="fil0 str0" x1="4329" y1="7209.36" x2="4230.57" y2= "7209.36" />
  <line class="fil0 str0" x1="4230.57" y1="7209.36" x2="4230.57" y2= "7681.94" />
  <line class="fil0 str0" x1="4230.57" y1="7681.94" x2="4703.15" y2= "7681.94" />
  <line class="fil0 str0" x1="5372.31" y1="7209.36" x2="5372.31" y2= "7681.94" />
  <line class="fil0 str0" x1="5273.88" y1="7209.36" x2="5372.31" y2= "7209.36" />
  <line class="fil0 str0" x1="5273.88" y1="7583.61" x2="5273.88" y2= "7209.36" />
  <line class="fil0 str0" x1="4899.73" y1="7583.61" x2="5273.88" y2= "7583.61" />
  <line class="fil0 str0" x1="4899.73" y1="7681.94" x2="4899.73" y2= "7583.61" />
  <line class="fil0 str0" x1="5372.31" y1="7681.94" x2="4899.73" y2= "7681.94" />
 </g>
 <g id="_0_1">
  <metadata id="CorelCorpID_1Corel-Layer"/>
  <path class="fil0 str0" d="M2997.52 4698.82c0,52.21 20.74,102.28 57.66,139.19 36.91,36.92 86.98,57.66 139.19,57.66"/>
  <line class="fil0 str0" x1="2997.52" y1="4698.82" x2="2997.52" y2= "4583.35" />
  <line class="fil0 str0" x1="2525.07" y1="4583.35" x2="2997.52" y2= "4583.35" />
  <path class="fil0 str0" d="M2446.33 4504.61c0,20.89 8.3,40.91 23.06,55.68 14.77,14.77 34.8,23.06 55.68,23.06"/>
  <line class="fil0 str0" x1="2446.33" y1="4504.61" x2="2446.33" y2= "4110.91" />
  <path class="fil0 str0" d="M2525.07 4032.17c-20.88,0 -40.91,8.3 -55.68,23.06 -14.77,14.77 -23.06,34.8 -23.06,55.68"/>
  <line class="fil0 str0" x1="2525.07" y1="4032.17" x2="2997.52" y2= "4032.17" />
  <line class="fil0 str0" x1="2997.52" y1="4032.17" x2="2997.52" y2= "2761.15" />
  <path class="fil0 str0" d="M3194.37 2564.3c-52.21,0 -102.28,20.74 -139.19,57.66 -36.92,36.91 -57.66,86.98 -57.66,139.19"/>
  <line class="fil0 str0" x1="3194.37" y1="2564.3" x2="4368.76" y2= "2564.3" />
  <line class="fil0 str0" x1="4368.76" y1="2564.3" x2="4368.76" y2= "2091.85" />
  <path class="fil0 str0" d="M4447.5 2013.11c-20.88,0 -40.91,8.3 -55.68,23.06 -14.77,14.77 -23.06,34.8 -23.06,55.68"/>
  <line class="fil0 str0" x1="4447.5" y1="2013.11" x2="4841.2" y2= "2013.11" />
  <path class="fil0 str0" d="M4919.94 2091.85c0,-20.88 -8.3,-40.91 -23.06,-55.68 -14.77,-14.77 -34.8,-23.06 -55.68,-23.06"/>
  <line class="fil0 str0" x1="4919.94" y1="2091.85" x2="4919.94" y2= "2564.3" />
  <line class="fil0 str0" x1="4919.94" y1="2564.3" x2="5942.28" y2= "2564.3" />
  <path class="fil0 str0" d="M6139.13 2761.15c0,-52.21 -20.74,-102.28 -57.66,-139.19 -36.91,-36.92 -86.98,-57.66 -139.19,-57.66"/>
  <line class="fil0 str0" x1="6139.13" y1="2761.15" x2="6139.13" y2= "3360.81" />
  <path class="fil0 str0" d="M5939.61 3551.4c107.35,1.51 196.11,-83.28 199.52,-190.59"/>
  <path class="fil0 str0" d="M5939.61 3551.4c-52.69,-0.74 -103.46,19.67 -140.98,56.66 -37.52,36.99 -58.64,87.48 -58.64,140.17"/>
  <line class="fil0 str0" x1="5740" y1="4032.17" x2="5740" y2= "3748.23" />
  <line class="fil0 str0" x1="6212.44" y1="4032.17" x2="5740" y2= "4032.17" />
  <path class="fil0 str0" d="M6291.18 4110.91c0,-20.88 -8.3,-40.91 -23.06,-55.68 -14.77,-14.77 -34.8,-23.06 -55.68,-23.06"/>
  <line class="fil0 str0" x1="6291.18" y1="4504.61" x2="6291.18" y2= "4110.91" />
  <path class="fil0 str0" d="M6212.44 4583.35c43.49,0 78.74,-35.25 78.74,-78.74"/>
  <line class="fil0 str0" x1="5740" y1="4583.35" x2="6212.44" y2= "4583.35" />
  <line class="fil0 str0" x1="5740" y1="4698.82" x2="5740" y2= "4583.35" />
  <path class="fil0 str0" d="M5543.15 4895.67c108.72,0 196.85,-88.13 196.85,-196.85"/>
  <line class="fil0 str0" x1="3194.37" y1="4895.67" x2="5543.15" y2= "4895.67" />
  <path class="fil0 str0" d="M5480.15 2858.04c0,-38.05 -30.85,-68.9 -68.9,-68.9 -38.05,0 -68.9,30.85 -68.9,68.9 0,38.05 30.85,68.9 68.9,68.9 38.05,0 68.9,-30.85 68.9,-68.9z"/>
  <path class="fil0 str0" d="M3330.15 4638.04c0,-38.05 -30.85,-68.9 -68.9,-68.9 -38.05,0 -68.9,30.85 -68.9,68.9 0,38.05 30.85,68.9 68.9,68.9 38.05,0 68.9,-30.85 68.9,-68.9z"/>
  <path class="fil0 str0" d="M3330.15 2858.04c0,-38.05 -30.85,-68.9 -68.9,-68.9 -38.05,0 -68.9,30.85 -68.9,68.9 0,38.05 30.85,68.9 68.9,68.9 38.05,0 68.9,-30.85 68.9,-68.9z"/>
  <path class="fil0 str0" d="M5480.15 4638.04c0,-38.05 -30.85,-68.9 -68.9,-68.9 -38.05,0 -68.9,30.85 -68.9,68.9 0,38.05 30.85,68.9 68.9,68.9 38.05,0 68.9,-30.85 68.9,-68.9z"/>
  <path class="fil0 str0" d="M6084.48 4307.76c0,-38.05 -30.85,-68.9 -68.9,-68.9 -38.05,0 -68.9,30.85 -68.9,68.9 0,38.05 30.85,68.9 68.9,68.9 38.05,0 68.9,-30.85 68.9,-68.9z"/>
  <path class="fil0 str0" d="M2790.82 4307.76c0,-38.05 -30.85,-68.9 -68.9,-68.9 -38.05,0 -68.9,30.85 -68.9,68.9 0,38.05 30.85,68.9 68.9,68.9 38.05,0 68.9,-30.85 68.9,-68.9z"/>
  <path class="fil0 str0" d="M4713.24 2288.7c0,-38.05 -30.85,-68.9 -68.9,-68.9 -38.05,0 -68.9,30.85 -68.9,68.9 0,38.05 30.85,68.9 68.9,68.9 38.05,0 68.9,-30.85 68.9,-68.9z"/>
 </g>
</svg>
